<svg xmlns="http://www.w3.org/2000/svg" viewBox="0 0 216 180" role="img" aria-labelledby="title desc">
  <title id="title">ExamBridge symbol</title>
  <desc id="desc">An open book forming a bridge.</desc>
  <path d="M0 1C34 -1 68 10 99 32L99 79C64 81 31 92 0 114Z" fill="#253C4B"/>
  <path d="M116 32C147 10 181 -1 215 1L215 114C184 92 151 81 116 79Z" fill="#AB9E92"/>
  <path d="M0 134C33 112 69 100 101 97C106 96 111 96 116 97C149 100 183 113 215 134L215 179C196 170 177 164 158 160C154 136 134 117 108 117C82 117 62 136 58 160C39 164 19 170 0 179Z" fill="#253C4B"/>
</svg>
