<svg xmlns="http://www.w3.org/2000/svg" viewBox="0 0 1190 190" role="img" aria-labelledby="title desc">
  <title id="title">ExamBridge</title>
  <desc id="desc">ExamBridge wordmark with an open-book bridge symbol.</desc>
  <g transform="translate(0 5)">
  <path d="M0 1C34 -1 68 10 99 32L99 79C64 81 31 92 0 114Z" fill="#253C4B"/>
  <path d="M116 32C147 10 181 -1 215 1L215 114C184 92 151 81 116 79Z" fill="#AB9E92"/>
  <path d="M0 134C33 112 69 100 101 97C106 96 111 96 116 97C149 100 183 113 215 134L215 179C196 170 177 164 158 160C154 136 134 117 108 117C82 117 62 136 58 160C39 164 19 170 0 179Z" fill="#253C4B"/>
  </g>
  <path d="M301.15 138.66L361.47 138.66L361.47 153L285.02 153L285.02 37.6L359.02 37.6L359.02 51.78L301.15 51.78L301.15 86.33L355.6 86.33L355.6 100.19L301.15 100.19ZM401.07 112.41L372.88 75.74L391.78 75.74L410.69 102.31L429.76 75.74L447.69 75.74L419.82 112.25L450.95 153L431.88 153L410.37 122.84L388.52 153L370.1 153ZM513.54 102.96Q513.54 94.32 508.33 90.16Q503.11 86.01 494.47 86.01Q487.95 86.01 482.17 88.53Q476.38 91.06 472.47 94.97L464.32 85.19Q470.02 79.81 478.25 76.72Q486.49 73.62 495.94 73.62Q504.25 73.62 510.37 75.98Q516.48 78.35 520.39 82.42Q524.3 86.5 526.26 92.04Q528.21 97.58 528.21 103.94L528.21 137.68Q528.21 141.59 528.46 145.91Q528.7 150.23 529.36 153L515.5 153Q514.2 147.46 514.2 141.92L513.71 141.92Q509.47 148.11 503.03 151.53Q496.59 154.96 487.79 154.96Q483.23 154.96 478.25 153.73Q473.28 152.51 469.21 149.74Q465.13 146.97 462.44 142.41Q459.75 137.84 459.75 131.16Q459.75 122.36 464.48 117.22Q469.21 112.09 476.87 109.4Q484.53 106.71 494.15 105.89Q503.76 105.08 513.54 105.08ZM509.8 116.16Q504.09 116.16 497.98 116.65Q491.87 117.14 486.89 118.61Q481.92 120.07 478.66 123.01Q475.4 125.94 475.4 130.83Q475.4 134.25 476.79 136.54Q478.17 138.82 480.46 140.29Q482.74 141.75 485.51 142.32Q488.28 142.89 491.21 142.89Q501.97 142.89 507.76 136.46Q513.54 130.02 513.54 120.24L513.54 116.16ZM568.8 88.45Q571.74 82.26 578.17 77.94Q584.61 73.62 593.41 73.62Q601.24 73.62 607.51 77.2Q613.79 80.79 617.38 89.1Q621.29 81.61 628.3 77.61Q635.31 73.62 643.62 73.62Q651.12 73.62 656.5 76.15Q661.87 78.67 665.46 82.91Q669.05 87.15 670.76 92.85Q672.47 98.56 672.47 105.08L672.47 153L657.15 153L657.15 110.13Q657.15 105.4 656.33 101.17Q655.52 96.93 653.56 93.67Q651.61 90.41 648.35 88.45Q645.09 86.5 640.03 86.5Q634.82 86.5 631.07 88.7Q627.32 90.9 624.95 94.4Q622.59 97.91 621.53 102.31Q620.47 106.71 620.47 111.27L620.47 153L605.15 153L605.15 107.03Q605.15 102.47 604.34 98.72Q603.52 94.97 601.56 92.28Q599.61 89.59 596.51 88.04Q593.41 86.5 588.85 86.5Q580.37 86.5 574.75 93.42Q569.13 100.35 569.13 111.92L569.13 153L553.81 153L553.81 92.36Q553.81 89.27 553.64 84.38Q553.48 79.49 553.15 75.74L567.66 75.74Q567.99 78.67 568.15 82.34Q568.31 86.01 568.31 88.45ZM699.2 37.6L738.97 37.6Q745.49 37.6 752.01 39.06Q758.53 40.53 763.67 43.95Q768.8 47.38 771.98 52.92Q775.16 58.46 775.16 66.77Q775.16 76.39 769.62 82.91Q764.08 89.43 754.95 91.88L754.95 92.2Q760.49 92.85 765.22 95.05Q769.94 97.25 773.37 100.84Q776.79 104.43 778.66 109.32Q780.54 114.21 780.54 120.24Q780.54 128.55 777.12 134.74Q773.69 140.94 767.82 144.93Q761.96 148.93 754.05 150.96Q746.14 153 737.18 153L699.2 153ZM715.34 86.33L736.37 86.33Q740.93 86.33 745.09 85.27Q749.24 84.21 752.34 82.01Q755.44 79.81 757.23 76.47Q759.02 73.13 759.02 68.4Q759.02 59.11 752.18 55.12Q745.33 51.12 733.76 51.12L715.34 51.12ZM715.34 139.31L735.55 139.31Q740.6 139.31 745.74 138.41Q750.87 137.51 755.03 135.23Q759.19 132.95 761.71 129.12Q764.24 125.29 764.24 119.42Q764.24 109.15 757.23 104.59Q750.22 100.03 737.02 100.03L715.34 100.03ZM803.03 92.36Q803.03 89.27 802.87 84.38Q802.71 79.49 802.38 75.74L816.89 75.74Q817.21 78.67 817.38 82.5Q817.54 86.33 817.54 88.78L818.03 88.78Q821.29 81.93 827.56 77.78Q833.84 73.62 841.66 73.62Q845.25 73.62 847.69 74.27L847.04 88.45Q843.78 87.64 840.03 87.64Q834.49 87.64 830.42 89.67Q826.34 91.71 823.65 95.13Q820.96 98.56 819.66 103.04Q818.35 107.52 818.35 112.41L818.35 153L803.03 153ZM877.52 153L862.2 153L862.2 75.74L877.52 75.74ZM880.13 47.86Q880.13 52.1 877.12 54.87Q874.1 57.64 869.86 57.64Q865.62 57.64 862.69 54.79Q859.76 51.94 859.76 47.86Q859.76 43.63 862.69 40.77Q865.62 37.92 869.86 37.92Q874.1 37.92 877.12 40.77Q880.13 43.63 880.13 47.86ZM965.87 140.78Q961.47 147.78 953.89 151.45Q946.31 155.12 938 155.12Q929.03 155.12 921.86 151.94Q914.69 148.76 909.63 143.22Q904.58 137.68 901.81 130.18Q899.04 122.68 899.04 114.21Q899.04 105.73 901.81 98.31Q904.58 90.9 909.72 85.36Q914.85 79.81 922.02 76.72Q929.19 73.62 937.83 73.62Q947.29 73.62 954.3 77.61Q961.31 81.61 965.38 87.31L965.71 87.31L965.71 29.77L981.03 29.77L981.03 153L966.2 153L966.2 140.78ZM915.01 114.21Q915.01 119.59 916.64 124.64Q918.27 129.69 921.53 133.6Q924.79 137.51 929.52 139.88Q934.25 142.24 940.6 142.24Q946.47 142.24 951.28 139.96Q956.09 137.68 959.51 133.85Q962.94 130.02 964.81 124.96Q966.68 119.91 966.68 114.37Q966.68 108.83 964.81 103.77Q962.94 98.72 959.51 94.81Q956.09 90.9 951.28 88.61Q946.47 86.33 940.6 86.33Q934.25 86.33 929.52 88.61Q924.79 90.9 921.53 94.81Q918.27 98.72 916.64 103.77Q915.01 108.83 915.01 114.21ZM1013.79 166.2Q1018.84 171.91 1026.42 175.33Q1034 178.75 1041.99 178.75Q1049.65 178.75 1054.87 176.55Q1060.08 174.35 1063.26 170.52Q1066.44 166.69 1067.83 161.48Q1069.21 156.26 1069.21 150.23L1069.21 140.29L1068.88 140.29Q1064.65 146.81 1057.31 150.23Q1049.98 153.65 1041.66 153.65Q1032.86 153.65 1025.61 150.56Q1018.36 147.46 1013.3 142.08Q1008.25 136.7 1005.48 129.45Q1002.71 122.19 1002.71 113.88Q1002.71 105.57 1005.48 98.23Q1008.25 90.9 1013.3 85.44Q1018.36 79.98 1025.53 76.8Q1032.7 73.62 1041.5 73.62Q1049.81 73.62 1057.39 77.2Q1064.97 80.79 1069.37 88.13L1069.7 88.13L1069.7 75.74L1084.53 75.74L1084.53 149.09Q1084.53 157.56 1082.41 165.31Q1080.3 173.05 1075.24 179Q1070.19 184.95 1062.04 188.53Q1053.89 192.12 1041.83 192.12Q1031.72 192.12 1021.53 188.45Q1011.35 184.78 1004.01 178.1ZM1018.52 113.55Q1018.52 118.93 1020.23 123.82Q1021.94 128.71 1025.28 132.46Q1028.62 136.21 1033.35 138.49Q1038.08 140.78 1044.11 140.78Q1049.98 140.78 1054.87 138.66Q1059.76 136.54 1063.18 132.87Q1066.6 129.2 1068.48 124.23Q1070.35 119.26 1070.35 113.55Q1070.35 108.01 1068.48 103.12Q1066.6 98.23 1063.1 94.48Q1059.59 90.73 1054.79 88.53Q1049.98 86.33 1044.11 86.33Q1038.08 86.33 1033.35 88.53Q1028.62 90.73 1025.28 94.4Q1021.94 98.07 1020.23 103.04Q1018.52 108.01 1018.52 113.55ZM1167.34 107.52Q1167.17 102.96 1165.79 98.97Q1164.4 94.97 1161.71 92.04Q1159.02 89.1 1155.03 87.39Q1151.04 85.68 1145.66 85.68Q1140.77 85.68 1136.45 87.39Q1132.13 89.1 1128.95 92.04Q1125.77 94.97 1123.73 98.97Q1121.7 102.96 1121.37 107.52ZM1182.82 113.72Q1182.82 115.02 1182.82 116.32Q1182.82 117.63 1182.66 118.93L1121.37 118.93Q1121.53 123.82 1123.57 128.14Q1125.61 132.46 1129.03 135.64Q1132.45 138.82 1136.94 140.61Q1141.42 142.41 1146.47 142.41Q1154.3 142.41 1160 138.98Q1165.71 135.56 1168.97 130.67L1179.72 139.31Q1173.53 147.46 1165.14 151.29Q1156.74 155.12 1146.47 155.12Q1137.67 155.12 1130.17 152.19Q1122.67 149.25 1117.3 143.95Q1111.92 138.66 1108.82 131.16Q1105.72 123.66 1105.72 114.53Q1105.72 105.57 1108.74 97.99Q1111.75 90.41 1117.13 85.03Q1122.51 79.65 1129.85 76.63Q1137.18 73.62 1145.66 73.62Q1154.13 73.62 1161.06 76.39Q1167.99 79.16 1172.8 84.38Q1177.61 89.59 1180.21 97.01Q1182.82 104.43 1182.82 113.72Z" fill="#253C4B"/>
</svg>
